<mxfile host="app.diagrams.net" modified="2024-05-17T22:17:07.457Z" agent="Mozilla/5.0 (Windows NT 10.0; Win64; x64) AppleWebKit/537.36 (KHTML, like Gecko) Chrome/125.0.0.0 Safari/537.36" version="24.3.1" etag="HIHKA2vrRyUc7wMQA_1V" type="github">
  <diagram name="Page-1" id="6DdCzX0VPsdjX-1Q6Vze">
    <mxGraphModel>
      <root>
        <mxCell id="0" />
        <mxCell id="1" parent="0" />
      </root>
    </mxGraphModel>
  </diagram>
</mxfile>
